<?xml version="1.0" encoding="utf-8"?>
<!-- Generator: Adobe Illustrator 19.1.0, SVG Export Plug-In . SVG Version: 6.00 Build 0)  -->
<svg version="1.1" xmlns="http://www.w3.org/2000/svg" xmlns:xlink="http://www.w3.org/1999/xlink" x="0px" y="0px"
	 viewBox="0 0 565 483.8" style="enable-background:new 0 0 565 483.8;" xml:space="preserve">
<style type="text/css">
	.st0{fill:none;stroke:#000000;stroke-width:5;stroke-miterlimit:10;}
	.st1{fill:#FFFFFF;}
	.st2{fill:none;stroke:#000000;stroke-miterlimit:10;}
</style>
<g id="Layer_6">
	<path class="st0" d="M475.9,73.7c0,0-28.4-0.4-48.3,6.2l0,0C373.1,23.2,284.5,5.7,284.5,5.7c-3.4,6.1-8.6,13.5-14.9,21.3l0,0
		L243.5,3c-17,8.7-125,149.3-125,149.3l7.6,26.1c-29.3,19.4-70.7,40.8-120,47.9c21.7,17,79,100.7,93,108c0.7,10.7,111.3,71,111.3,71
		l8,9l69-9l0,0c5.4,17.6,9.1,33.4,10,46c0,0,52,43,127,26l63-66c0,0,28-53,34-84c0,0-38-52-45-73l-11.2-4.3l0,0l22.2-12.3
		c0,0,74.3,72.7,75-100.8l-64.3-3.9l0,0C495.6,91.4,482.1,73.7,475.9,73.7"/>
</g>
<g id="Layer_7">
	<path class="st1" d="M475.9,73.7c0,0-28.4-0.4-48.3,6.2l0,0C373.1,23.2,284.5,5.7,284.5,5.7c-3.4,6.1-8.6,13.5-14.9,21.3l0,0
		L243.5,3c-17,8.7-125,149.3-125,149.3l7.6,26.1c-29.3,19.4-70.7,40.8-120,47.9c21.7,17,79,100.7,93,108c0.7,10.7,111.3,71,111.3,71
		l8,9l69-9l0,0c5.4,17.6,9.1,33.4,10,46c0,0,52,43,127,26l63-66c0,0,28-53,34-84c0,0-38-52-45-73l-11.2-4.3l0,0l22.2-12.3
		c0,0,74.3,72.7,75-100.8l-64.3-3.9l0,0C495.5,91.4,482.1,73.7,475.9,73.7"/>
</g>
<g id="Layer_3">
	<path class="st2" d="M405.3,224.2c11,65-117,70-143,103c-3.2,4.1,32.2,85.4,35,124c0,0,52,43,127,26l63-66c0,0,28-53,34-84
		c0,0-38-52-45-73L405.3,224.2z"/>
	<path class="st2" d="M243.3,334.2c0,0-58-134-54-182l-39,152L243.3,334.2z"/>
	<polygon class="st2" points="249.3,350.2 271.7,358.7 266.9,346 243.3,334.2 	"/>
	<path class="st2" d="M163.6,149.5C148.2,163.9,84.8,214.8,6,226.2l144.3,78"/>
	<path class="st2" d="M84.8,201.5l65.5,102.7l-51.3,30c0.7,10.7,111.3,71,111.3,71l47.2-51.9"/>
	<line class="st2" x1="163.6" y1="144.8" x2="150.3" y2="304.2"/>
	<path class="st2" d="M6,226.2c21.7,17,79,100.7,93,108"/>
	<path class="st2" d="M193.6,149.5c-57.6-0.7-18-17.7,0-11.3"/>
	<path class="st2" d="M178.6,136.7c0,0,3-19.9,10.7-26.6c7.7-6.7,77-72,95-104.7l25.7,29"/>
	<path class="st2" d="M284.3,5.5c0,0,124.7,24.7,169.3,110"/>
	<line class="st2" x1="125.9" y1="178.3" x2="118.3" y2="152.2"/>
	<path class="st2" d="M118.3,152.2c0,0,108-140.7,125-149.3l26.1,24"/>
	<line class="st2" x1="122.1" y1="147.2" x2="144.5" y2="165.2"/>
	<path class="st2" d="M243.3,2.8c0,0-2.7,17.8,1.5,52.2"/>
	<path class="st2" d="M476.3,73.5c10,0,37.3,46,11,164"/>
	<path class="st2" d="M498,132.8l64.3,3.9c-0.7,173.4-75,100.8-75,100.8L465,250.2"/>
	<path class="st2" d="M446.3,241.5l9.5-19.8c-14.7,4.7-50.5,2.5-50.5,2.5s-71,48.3-111.7,41c0,0-6.3,11-18.7,12
		c0,0-34.3,20.6-44.1,16.8"/>
	<path class="st2" d="M495.3,192.7c0,0,51.6-26.1,67-56"/>
	<path class="st2" d="M311,301.1c-23.6-60.3-96.7-145.9-91.7-186.6"/>
	<path class="st2" d="M343.3,32.2c53.7,15.3,81,96.7,7,23.9"/>
	<polyline class="st2" points="364.3,136.7 369.4,114.5 394.5,84.9 	"/>
</g>
<g id="Layer_2">
	<path class="st2" d="M405.3,224.2l71,30l-104,142C372.3,396.2,428.3,244.2,405.3,224.2z"/>
	<polygon class="st2" points="150.3,304.2 243.3,334.2 249.3,350.2 	"/>
	<polyline class="st2" points="424.3,473.2 372.3,396.2 487.3,411.2 	"/>
	<polygon class="st2" points="210.3,405.2 287.3,405.2 218.3,414.2 	"/>
	<path class="st2" d="M189.8,149.4c3.8-18.2,30.5-120.3,153.5-117.3"/>
	<path class="st2" d="M249.3,337.2c0,0-64.3-139.7-55.7-187.7l-4.3,2.7"/>
	<path class="st2" d="M257.5,286.5c-5-44.7-60.7-127-38.2-172l6.3-18.3c0,0,60-39.3,110-35.7"/>
	<path class="st2" d="M292.9,308c-5.6-22.5-59.4-105.3-70.7-124.3"/>
	<path class="st2" d="M193.6,178.3c0,0,12.9-38.7,20.3-41.5"/>
	<path class="st2" d="M405.3,224.2c-33.7-12.9-135.4,0-169.6-56.3"/>
	<path class="st2" d="M202.3,155.5c0,0-14-113.3,144-118.7"/>
	<path class="st2" d="M453.6,115.5C471,136.7,335,207.8,345.3,57"/>
	<path class="st2" d="M476.3,73.5c0,0-29-0.4-48.8,6.2"/>
	<path class="st2" d="M451.9,112.3c10.4,3.2-38.6,59-87.6,24.5"/>
	<path class="st2" d="M376.3,179.8c0,0-27,15.6-44.7,6.5"/>
	<line class="st2" x1="180.3" y1="73.5" x2="204.3" y2="96.2"/>
	<path class="st2" d="M521.3,327.2c0,0-39.9-26.3-84.4-19.1"/>
	<path class="st2" d="M257.5,190.5c-2.7-34.2-32.9-61.6-26.7-90.3"/>
</g>
<g id="Layer_4">
	<line class="st2" x1="346.3" y1="36.8" x2="343.3" y2="32.2"/>
	<path class="st2" d="M310,210.4c0,0-88.6-97.5,35.3-153.3l4.3-2c0,0-5.1,37.5-1.9,48.9"/>
	<path class="st2" d="M323.6,212.7c0,0-66.5-58.4-35.7-108.8"/>
	<path class="st2" d="M474.6,73.5c7.4,61.3-54,142.6-154.1,136.9"/>
	<path class="st2" d="M472,126.2c-7.7,24.7-15,92.5-41.3,98.4"/>
	<path class="st2" d="M406.3,224.6c0,0,45.4-20.8,60.4-76.6"/>
	<path class="st2" d="M451.3,222.8c0,0,5.7-10.9,4.5-30.1"/>
	<path class="st2" d="M345.2,85.9c-18.2,33.3,7.8,66.3-13.6,100.4"/>
	<path class="st2" d="M455.2,122.8c-15.5,19.2-16.9,64.7-78.9,57"/>
	<path class="st2" d="M230.8,100.2c0,0,42.8-30.9,64.1-35"/>
	<path class="st2" d="M305.9,193.8l-3.5-17.8c-0.4-2.1,1-4.1,3.1-4.4c8.6-1.2,28.8-4.3,34.3-7.7"/>
	<path class="st2" d="M478.6,82.7c0,0,0.5-2.5,2-2s33.1,37.2,4.5,157.8"/>
</g>
</svg>
